<?xml version="1.0" encoding="UTF-8"?>
<svg id="Layer_1" xmlns="http://www.w3.org/2000/svg" version="1.1" viewBox="0 0 1024 1024">
  <!-- Generator: Adobe Illustrator 29.5.1, SVG Export Plug-In . SVG Version: 2.1.0 Build 141)  -->
  <defs>
    <style>
      .st0 {
        fill: #231f20;
        stroke: #000;
        stroke-miterlimit: 10;
        stroke-width: 16px;
      }

      .st1 {
        fill: #fff;
      }
    </style>
  </defs>
  <rect class="st1" x="221.9" y="219.2" width="585.6" height="585.6"/>
  <path d="M980.1,555.6c24,0,43.7-19.6,43.7-43.7s-19.6-43.7-43.7-43.7h-124.1v-60.8h124.1c24,0,43.7-19.6,43.7-43.7s-19.6-43.7-43.7-43.7h-124.1v-106.8c0-24-19.6-43.7-43.7-43.7h-108.9V43.7C703.5,19.6,683.8,0,659.8,0s-43.7,19.6-43.7,43.7v126.4h-61V43.7C555.1,19.6,535.5,0,511.5,0s-43.7,19.6-43.7,43.7v126.4h-60.4V43.7C407.4,19.6,387.8,0,363.7,0s-43.7,19.6-43.7,43.7v126.4h-102.4c-24,0-43.7,19.6-43.7,43.7v106.8H43.6C19.6,320.5,0,340.1,0,364.2s19.6,43.7,43.7,43.7h130.8v61H43.6C19.6,468.9,0,488.5,0,512.5s19.6,43.7,43.7,43.7h130.8v58.1H43.6C19.6,614.3,0,633.9,0,658s19.6,43.7,43.7,43.7h130.8v106.8c0,24,19.6,43.7,43.7,43.7h102.4v128.5c0,24,19.6,43.7,43.7,43.7s43.7-19.6,43.7-43.7v-128.5h61v128.5c0,24,19.6,43.7,43.7,43.7s43.7-19.6,43.7-43.7v-128.5h60.2v128.5c0,24,19.6,43.7,43.7,43.7s41.4-19.6,43.7-43.7v-128.5h108.9c24,0,43.7-17.3,43.7-43.7v-106.8h124.1c24,0,43.7-19.6,43.7-43.7s-19.6-43.7-43.7-43.7h-124.1v-58.7h123.9ZM768.9,766.8h-509.8v-509.8h509.8v509.8Z"/>
  <g>
    <path class="st0" d="M688.7,482.2c.6-1.1,1-2.3,1.3-3.5l13.7-73.1c1.8-10.1-4.9-19.8-15-21.6-10.1-1.8-19.8,4.9-21.6,15h0l-6.8,36.6c-44.7-81.7-147.1-111.6-228.8-66.9-33.3,18.3-59.5,47.2-74.3,82.2-3.8,9.3.7,20,10.1,23.8,9.3,3.9,20-.6,23.9-9.9,0,0,0-.1,0-.2,20.2-49.5,68.7-81.5,122.1-80.6,47-.2,90.5,24.8,114.1,65.4l-30.2-4.9c-10.1-1.6-19.6,5.3-21.2,15.4-1.6,10.1,5.3,19.6,15.4,21.2l77.7,13h2.9c2.1,0,4.2-.3,6.2-1.1.7-.3,1.3-.6,1.8-1.1,1.3-.5,2.5-1.2,3.7-2l1.5-1.8c.9-.9,1.8-1.9,2.6-2.9.4-.9.8-1.9.9-2.9Z"/>
    <path class="st0" d="M656.2,549.8c-9.3-3.8-20,.6-23.8,10,0,0,0,.2-.1.3-20.3,49-68.4,80.6-121.4,79.9-47,.2-90.5-24.8-114.1-65.4l30.2,4.9h2.9c10.1.8,18.9-6.7,19.7-16.8.8-10.1-6.7-18.9-16.8-19.7l-77.7-12.6c-2-.4-4-.4-6,0h-1.5c-2.1.6-4,1.4-5.9,2.6-1.2,1-2.3,2.1-3.3,3.3l-1.6,1.8c-.6,1.1-1,2.3-1.3,3.5-.6.9-1.1,2-1.3,3.1l-13.7,73.1c-2.4,9.8,3.7,19.7,13.5,22.1.4,0,.8.2,1.1.2h3.3c8.9.1,16.7-6.2,18.3-15l6.8-36.6c44.7,81.7,147.1,111.7,228.8,67,33.3-18.2,59.5-47.2,74.3-82.2,3.5-9.3-1.1-19.7-10.4-23.4Z"/>
  </g>
</svg>